<?xml version="1.0" encoding="iso-8859-1"?>
<!-- Generator: Adobe Illustrator 19.0.0, SVG Export Plug-In . SVG Version: 6.00 Build 0)  -->
<svg version="1.1" id="Layer_1" xmlns="http://www.w3.org/2000/svg" xmlns:xlink="http://www.w3.org/1999/xlink" x="0px" y="0px"
	 viewBox="0 0 503.467 503.467" style="enable-background:new 0 0 503.467 503.467;" xml:space="preserve">
<g transform="translate(9 1)">
	<path style="fill:#F2EDDA;" d="M421.933,37.4v426.667c0,18.773-15.36,34.133-34.133,34.133H97.667
		c-18.773,0-34.133-15.36-34.133-34.133V37.4c0-18.773,15.36-34.133,34.133-34.133H387.8C406.573,3.267,421.933,18.627,421.933,37.4
		L421.933,37.4z M204.333,419.693c11.093,6.827,24.747,10.24,38.4,10.24c13.653,0,27.307-3.413,38.4-10.24
		c11.947-6.827,21.333-16.213,28.16-28.16c6.827-11.093,10.24-24.747,10.24-38.4s-3.413-27.307-10.24-38.4
		c-6.827-11.947-16.213-21.333-28.16-28.16c-11.093-6.827-24.747-10.24-38.4-10.24c-13.653,0-27.307,3.413-38.4,10.24
		c-11.947,6.827-21.333,16.213-28.16,28.16c-6.827,11.093-10.24,24.747-10.24,38.4s3.413,27.307,10.24,38.4
		C183,403.48,192.387,412.867,204.333,419.693L204.333,419.693z"/>
	<path style="fill:#AAB1BA;" d="M309.293,314.733c6.827,11.093,10.24,24.747,10.24,38.4s-3.413,27.307-10.24,38.4
		c-6.827,11.947-16.213,21.333-28.16,28.16c-11.093,6.827-24.747,10.24-38.4,10.24c-13.653,0-27.307-3.413-38.4-10.24
		c-11.947-6.827-21.333-16.213-28.16-28.16c-6.827-11.093-10.24-24.747-10.24-38.4s3.413-27.307,10.24-38.4
		c6.827-11.947,16.213-21.333,28.16-28.16c11.093-6.827,24.747-10.24,38.4-10.24c13.653,0,27.307,3.413,38.4,10.24
		C293.08,293.4,302.467,302.787,309.293,314.733"/>
	<g>
		<path style="fill:#FFD0A1;" d="M319.533,191c9.387,0,17.067,7.68,17.067,17.067s-7.68,17.067-17.067,17.067
			s-17.067-7.68-17.067-17.067S310.147,191,319.533,191z M242.733,191c9.387,0,17.067,7.68,17.067,17.067
			s-7.68,17.067-17.067,17.067s-17.067-7.68-17.067-17.067S233.347,191,242.733,191z M165.933,191
			c9.387,0,17.067,7.68,17.067,17.067s-7.68,17.067-17.067,17.067c-9.387,0-17.067-7.68-17.067-17.067S156.547,191,165.933,191z"/>
		<polygon style="fill:#FFD0A1;" points="242.733,156.867 148.867,156.867 148.867,54.467 336.6,54.467 336.6,156.867 		"/>
	</g>
</g>
<path style="fill:#51565F;" d="M396.8,503.467c-2.56,0-4.267-1.707-4.267-4.267c0-2.56,1.707-4.267,4.267-4.267
	c16.213,0,29.867-13.653,29.867-29.867V38.4c0-16.213-13.653-29.867-29.867-29.867H106.667C90.453,8.533,76.8,22.187,76.8,38.4
	v426.667c0,16.213,13.653,29.867,29.867,29.867h256c2.56,0,4.267,1.707,4.267,4.267c0,2.56-1.707,4.267-4.267,4.267h-256
	c-21.333,0-38.4-17.067-38.4-38.4V38.4c0-21.333,17.067-38.4,38.4-38.4H396.8c21.333,0,38.4,17.067,38.4,38.4v426.667
	C435.2,486.4,418.133,503.467,396.8,503.467z M251.733,452.267c-2.56,0-4.267-1.707-4.267-4.267v-12.8
	c-11.947-0.853-23.04-3.413-32.427-8.533l-6.827,11.093c-0.853,1.707-3.413,2.56-5.973,1.707c-1.707-0.853-2.56-2.56-2.56-3.413
	s0-1.707,0.853-1.707l6.827-11.093c-9.387-5.973-17.92-14.507-23.893-23.893l-11.093,6.827c-1.707,0.853-4.267,0.853-5.973-1.707
	c0-0.853-0.853-1.707-0.853-2.56c0-1.707,0.853-2.56,2.56-3.413l11.093-6.827c-5.12-10.24-8.533-20.48-8.533-32.427h-12.8
	c-2.56,0-4.267-1.707-4.267-4.267s1.707-4.267,4.267-4.267h12.8c0.853-11.947,3.413-23.04,8.533-32.427l-11.093-6.827
	c-1.707-0.853-2.56-2.56-2.56-3.413s0-1.707,0.853-2.56c0.853-1.707,3.413-2.56,5.973-1.707l11.093,6.827
	c5.973-9.387,14.507-17.92,23.893-23.893l-6.827-11.093c0-0.853-0.853-1.707-0.853-2.56c0-1.707,0.853-2.56,2.56-3.413
	c1.707-0.853,4.267-0.853,5.973,1.707l6.827,11.093c10.24-5.12,20.48-8.533,32.427-8.533v-13.654c0-2.56,1.707-4.267,4.267-4.267
	c2.56,0,4.267,1.707,4.267,4.267v12.8c11.947,0.853,23.04,3.413,32.427,8.533l6.827-11.093c0.853-1.707,3.413-2.56,5.973-1.707
	c1.707,0.853,2.56,2.56,2.56,3.413c0,0.853,0,1.707-0.853,2.56l-6.827,11.093c9.387,5.973,17.92,14.507,23.893,23.893l11.093-6.827
	c1.707-0.853,4.267-0.853,5.973,1.707c0,0.853,0.853,1.707,0.853,2.56c0,1.707-0.853,2.56-2.56,3.413l-11.093,6.827
	c5.973,11.093,8.533,23.893,8.533,36.693c0,4.267,0,8.533-0.853,12.8H345.6c2.56,0,4.267,1.707,4.267,4.267
	s-1.707,4.267-4.267,4.267h-15.36c-1.707,5.12-3.413,10.24-5.973,15.36l11.093,6.827c1.707,0.853,2.56,2.56,2.56,3.413
	c0,0.853,0,1.707-0.853,2.56c-0.853,1.707-3.413,2.56-5.973,1.707L320,398.506c-5.973,9.387-14.507,17.92-23.893,23.893
	l6.827,11.093c0,0.853,0.853,1.707,0.853,1.707c0,1.707-0.853,2.56-2.56,3.413s-4.267,0.853-5.973-1.707l-6.827-11.093
	c-10.24,5.12-20.48,8.533-32.427,8.533v12.8C256,450.56,254.293,452.267,251.733,452.267z M179.2,354.133
	c0,40.107,32.427,72.533,72.533,72.533s72.533-32.427,72.533-72.533S291.84,281.6,251.733,281.6S179.2,314.027,179.2,354.133
	L179.2,354.133L179.2,354.133z M328.533,230.4c-11.947,0-21.333-9.387-21.333-21.333c0-11.947,9.387-21.333,21.333-21.333
	s21.333,9.387,21.333,21.333C349.867,221.013,340.48,230.4,328.533,230.4z M328.533,196.267c-6.827,0-12.8,5.973-12.8,12.8
	c0,6.827,5.973,12.8,12.8,12.8s12.8-5.973,12.8-12.8C341.333,202.24,335.36,196.267,328.533,196.267z M251.733,230.4
	c-11.947,0-21.333-9.387-21.333-21.333c0-11.947,9.387-21.333,21.333-21.333c11.947,0,21.333,9.387,21.333,21.333
	C273.067,221.013,263.68,230.4,251.733,230.4z M251.733,196.267c-6.827,0-12.8,5.973-12.8,12.8c0,6.827,5.973,12.8,12.8,12.8
	c6.827,0,12.8-5.973,12.8-12.8C264.533,202.24,258.56,196.267,251.733,196.267z M174.933,230.4
	c-11.947,0-21.333-9.387-21.333-21.333c0-11.947,9.387-21.333,21.333-21.333c11.947,0,21.333,9.387,21.333,21.333
	C196.267,221.013,186.88,230.4,174.933,230.4z M174.933,196.267c-6.827,0-12.8,5.973-12.8,12.8c0,6.827,5.973,12.8,12.8,12.8
	c6.827,0,12.8-5.973,12.8-12.8C187.733,202.24,181.76,196.267,174.933,196.267z M345.6,162.133h-59.733
	c-2.56,0-4.267-1.707-4.267-4.267c0-2.56,1.707-4.267,4.267-4.267h55.467V59.733h-179.2V153.6h81.92l-38.4-61.44
	c-0.853-1.707-0.853-4.267,1.707-5.973c1.707-0.853,4.267-0.853,5.973,1.707L256,156.16c0.853,1.707,0.853,2.56,0,4.267
	c-0.853,1.707-2.56,2.56-3.413,2.56H158.72c-2.56,0-4.267-1.707-4.267-4.267V56.32c0-2.56,1.707-4.267,4.267-4.267h187.733
	c2.56,0,4.267,1.707,4.267,4.267v102.4C349.867,160.427,348.16,162.133,345.6,162.133z"/>
<g>
</g>
<g>
</g>
<g>
</g>
<g>
</g>
<g>
</g>
<g>
</g>
<g>
</g>
<g>
</g>
<g>
</g>
<g>
</g>
<g>
</g>
<g>
</g>
<g>
</g>
<g>
</g>
<g>
</g>
</svg>
