<?xml version="1.0" encoding="iso-8859-1"?>
<!-- Generator: Adobe Illustrator 19.0.0, SVG Export Plug-In . SVG Version: 6.00 Build 0)  -->
<svg version="1.1" id="Layer_1" xmlns="http://www.w3.org/2000/svg" xmlns:xlink="http://www.w3.org/1999/xlink" x="0px" y="0px"
	 viewBox="0 0 503.467 503.467" style="enable-background:new 0 0 503.467 503.467;" xml:space="preserve">
<g transform="translate(5 1)">
	<path style="fill:#F2EDDA;" d="M50.467,156.867H443V71.533H50.467V156.867z M50.467,344.6H443V191H50.467V344.6z M50.467,464.067
		H443v-85.333H50.467V464.067z"/>
	<path style="fill:#AAB1BA;" d="M443,156.867c9.387,0,17.067,7.68,17.067,17.067c0,9.387-7.68,17.067-17.067,17.067H50.467
		c-9.387,0-17.067-7.68-17.067-17.067c0-9.387,7.68-17.067,17.067-17.067H443z M443,464.067c9.387,0,17.067,7.68,17.067,17.067
		S452.387,498.2,443,498.2H50.467c-9.387,0-17.067-7.68-17.067-17.067s7.68-17.067,17.067-17.067H443z M443,344.6
		c9.387,0,17.067,7.68,17.067,17.067s-7.68,17.067-17.067,17.067H50.467c-9.387,0-17.067-7.68-17.067-17.067
		S41.08,344.6,50.467,344.6H443z M357.667,37.4H443c9.387,0,17.067,7.68,17.067,17.067S452.387,71.533,443,71.533H50.467
		c-9.387,0-17.067-7.68-17.067-17.067S41.08,37.4,50.467,37.4H238.2V20.333c0-9.387,7.68-17.067,17.067-17.067H340.6
		c9.387,0,17.067,7.68,17.067,17.067V37.4z"/>
</g>
<path style="fill:#51565F;" d="M448,503.467H55.467c-11.947,0-21.333-9.387-21.333-21.333c0-10.24,7.68-18.773,17.067-21.333
	v-46.933c0-2.56,1.707-4.267,4.267-4.267c2.56,0,4.267,1.707,4.267,4.267v51.2c0,2.56-1.707,4.267-4.267,4.267
	c-6.827,0-12.8,5.973-12.8,12.8s5.973,12.8,12.8,12.8H448c6.827,0,12.8-5.973,12.8-12.8s-5.973-12.8-12.8-12.8H89.6
	c-2.56,0-4.267-1.707-4.267-4.267c0-2.56,1.707-4.267,4.267-4.267H448c11.947,0,21.333,9.387,21.333,21.333
	S459.947,503.467,448,503.467z M448,442.027c-2.56,0-4.267-1.707-4.267-4.267v-58.027c0-2.56,1.707-4.267,4.267-4.267
	c6.827,0,12.8-5.973,12.8-12.8s-5.973-12.8-12.8-12.8H89.6c-2.56,0-4.267-1.707-4.267-4.267c0-2.56,1.707-4.267,4.267-4.267H448
	c11.947,0,21.333,9.387,21.333,21.333c0,10.24-7.68,18.773-17.067,21.333v53.76C452.267,439.467,450.56,442.027,448,442.027z
	 M413.867,384h-358.4c-11.947,0-21.333-9.387-21.333-21.333c0-10.24,7.68-18.773,17.067-21.333v-115.2
	c0-2.56,1.707-4.267,4.267-4.267c2.56,0,4.267,1.707,4.267,4.267V345.6c0,2.56-1.707,4.267-4.267,4.267
	c-6.827,0-12.8,5.973-12.8,12.8s5.973,12.8,12.8,12.8h358.4c2.56,0,4.267,1.707,4.267,4.267
	C418.133,382.293,416.427,384,413.867,384z M448,315.733c-2.56,0-4.267-1.707-4.267-4.267V192c0-2.56,1.707-4.267,4.267-4.267
	c6.827,0,12.8-5.973,12.8-12.8c0-6.827-5.973-12.8-12.8-12.8H89.6c-2.56,0-4.267-1.707-4.267-4.267c0-2.56,1.707-4.267,4.267-4.267
	H448c11.947,0,21.333,9.387,21.333,21.333c0,10.24-7.68,18.773-17.067,20.48v116.053C452.267,314.027,450.56,315.733,448,315.733z
	 M413.867,196.267h-358.4c-11.947,0-21.333-9.387-21.333-21.333c0-10.24,7.68-18.773,17.067-20.48v-47.787
	c0-2.56,1.707-4.267,4.267-4.267c2.56,0,4.267,1.707,4.267,4.267v51.2c0,2.56-1.707,4.267-4.267,4.267
	c-6.827,0-12.8,5.973-12.8,12.8c0,6.827,5.973,12.8,12.8,12.8h358.4c2.56,0,4.267,1.707,4.267,4.267
	C418.133,194.56,416.427,196.267,413.867,196.267z M448,128c-2.56,0-4.267-1.707-4.267-4.267v-51.2c0-2.56,1.707-4.267,4.267-4.267
	c6.827,0,12.8-5.973,12.8-12.8s-5.973-12.8-12.8-12.8H277.333c-2.56,0-4.267-1.707-4.267-4.267s1.707-4.267,4.267-4.267H358.4v-12.8
	c0-6.827-5.973-12.8-12.8-12.8h-85.333c-6.827,0-12.8,5.973-12.8,12.8V38.4c0,2.56-1.707,4.267-4.267,4.267H55.467
	c-6.827,0-12.8,5.973-12.8,12.8s5.973,12.8,12.8,12.8h358.4c2.56,0,4.267,1.707,4.267,4.267c0,2.56-1.707,4.267-4.267,4.267h-358.4
	c-11.947,0-21.333-9.387-21.333-21.333s9.387-21.333,21.333-21.333h183.467v-12.8C238.933,9.387,248.32,0,260.267,0H345.6
	c11.947,0,21.333,9.387,21.333,21.333v12.8H448c11.947,0,21.333,9.387,21.333,21.333c0,10.24-7.68,18.773-17.067,20.48v47.787
	C452.267,126.293,450.56,128,448,128z"/>
<g>
</g>
<g>
</g>
<g>
</g>
<g>
</g>
<g>
</g>
<g>
</g>
<g>
</g>
<g>
</g>
<g>
</g>
<g>
</g>
<g>
</g>
<g>
</g>
<g>
</g>
<g>
</g>
<g>
</g>
</svg>
