<?xml version="1.0" encoding="iso-8859-1"?>
<!-- Generator: Adobe Illustrator 19.0.0, SVG Export Plug-In . SVG Version: 6.00 Build 0)  -->
<svg version="1.1" id="Layer_1" xmlns="http://www.w3.org/2000/svg" xmlns:xlink="http://www.w3.org/1999/xlink" x="0px" y="0px"
	 viewBox="0 0 503.467 503.467" style="enable-background:new 0 0 503.467 503.467;" xml:space="preserve">
<g transform="translate(1 3)">
	<path style="fill:#AAB1BA;" d="M191,393.8h119.467v-51.2H191V393.8z M412.867,342.6c28.16,0,51.2,23.04,51.2,51.2
		c0,28.16-23.04,51.2-51.2,51.2c-28.16,0-51.2-23.04-51.2-51.2C361.667,365.64,384.707,342.6,412.867,342.6z M88.6,342.6
		c28.16,0,51.2,23.04,51.2,51.2c0,28.16-23.04,51.2-51.2,51.2s-51.2-23.04-51.2-51.2C37.4,365.64,60.44,342.6,88.6,342.6z"/>
	<g>
		<path style="fill:#F2EDDA;" d="M88.6,376.733c9.387,0,17.067,7.68,17.067,17.067s-7.68,17.067-17.067,17.067
			s-17.067-7.68-17.067-17.067S79.213,376.733,88.6,376.733z M412.867,376.733c9.387,0,17.067,7.68,17.067,17.067
			s-7.68,17.067-17.067,17.067S395.8,403.187,395.8,393.8S403.48,376.733,412.867,376.733z"/>
		<path style="fill:#F2EDDA;" d="M88.6,52.467H191h119.467H447c0,0,51.2,17.067,51.2,128s-51.2,128-51.2,128H54.467
			c0,0-51.2-17.067-51.2-128s51.2-128,51.2-128H88.6z"/>
	</g>
	<path style="fill:#FFD0A1;" d="M310.467,35.4v17.067H191V35.4c0-9.387,7.68-17.067,17.067-17.067H293.4
		C302.787,18.333,310.467,26.013,310.467,35.4"/>
</g>
<path style="fill:#51565F;" d="M499.2,486.4H362.667c-2.56,0-4.267-1.707-4.267-4.267s1.707-4.267,4.267-4.267H499.2
	c2.56,0,4.267,1.707,4.267,4.267S501.76,486.4,499.2,486.4z M328.533,486.4h-17.067c-2.56,0-4.267-1.707-4.267-4.267
	s1.707-4.267,4.267-4.267h17.067c2.56,0,4.267,1.707,4.267,4.267S331.093,486.4,328.533,486.4z M260.267,486.4h-85.333
	c-2.56,0-4.267-1.707-4.267-4.267s1.707-4.267,4.267-4.267h85.333c2.56,0,4.267,1.707,4.267,4.267S262.827,486.4,260.267,486.4z
	 M123.733,486.4H4.267c-2.56,0-4.267-1.707-4.267-4.267s1.707-4.267,4.267-4.267h119.467c2.56,0,4.267,1.707,4.267,4.267
	S126.293,486.4,123.733,486.4z M413.867,452.267c-30.72,0-55.467-24.747-55.467-55.467c0-19.627,10.24-36.693,25.6-46.933H196.267
	v42.667H307.2v-12.8c0-2.56,1.707-4.267,4.267-4.267s4.267,1.707,4.267,4.267V396.8c0,2.56-1.707,4.267-4.267,4.267H192
	c-2.56,0-4.267-1.707-4.267-4.267v-46.933h-68.267c15.36,10.24,25.6,27.307,25.6,46.933c0,30.72-24.747,55.467-55.467,55.467
	S34.133,427.52,34.133,396.8c0-19.627,10.24-36.693,25.6-46.933H4.267C1.707,349.867,0,348.16,0,345.6
	c0-2.56,1.707-4.267,4.267-4.267H499.2c2.56,0,4.267,1.707,4.267,4.267c0,2.56-1.707,4.267-4.267,4.267h-55.467
	c15.36,10.24,25.6,27.307,25.6,46.933C469.333,427.52,444.587,452.267,413.867,452.267z M413.867,349.867
	c-25.6,0-46.933,21.333-46.933,46.933s21.333,46.933,46.933,46.933c25.6,0,46.933-21.333,46.933-46.933
	S439.467,349.867,413.867,349.867z M89.6,349.867c-25.6,0-46.933,21.333-46.933,46.933S64,443.733,89.6,443.733
	s46.933-21.333,46.933-46.933S115.2,349.867,89.6,349.867z M413.867,418.133c-11.947,0-21.333-9.387-21.333-21.333
	s9.387-21.333,21.333-21.333c11.947,0,21.333,9.387,21.333,21.333S425.813,418.133,413.867,418.133z M413.867,384
	c-6.827,0-12.8,5.973-12.8,12.8s5.973,12.8,12.8,12.8s12.8-5.973,12.8-12.8S420.693,384,413.867,384z M89.6,418.133
	c-11.947,0-21.333-9.387-21.333-21.333s9.387-21.333,21.333-21.333s21.333,9.387,21.333,21.333S101.547,418.133,89.6,418.133z
	 M89.6,384c-6.827,0-12.8,5.973-12.8,12.8s5.973,12.8,12.8,12.8s12.8-5.973,12.8-12.8S96.427,384,89.6,384z M448,315.733H55.467
	c-0.853,0-0.853,0-1.707,0C51.2,314.88,0,296.107,0,183.467S52.053,52.053,53.76,51.2c0.853,0,0.853,0,1.707,0h132.267V38.4
	c0-11.947,9.387-21.333,21.333-21.333H294.4c11.947,0,21.333,9.387,21.333,21.333v12.8H448c0.853,0,0.853,0,1.707,0
	c2.56,0.853,53.76,19.627,53.76,132.267s-52.053,131.413-53.76,132.267C448.853,315.733,448.853,315.733,448,315.733z M56.32,307.2
	h390.827c5.12-2.56,47.787-23.893,47.787-123.733S452.267,62.293,447.147,59.733h-135.68c-2.56,0-4.267-1.707-4.267-4.267V38.4
	c0-6.827-5.973-12.8-12.8-12.8h-85.333c-6.827,0-12.8,5.973-12.8,12.8v12.8h81.067c2.56,0,4.267,1.707,4.267,4.267
	c0,2.56-1.707,4.267-4.267,4.267h-81.067v217.6c0,2.56-1.707,4.267-4.267,4.267s-4.267-1.707-4.267-4.267v-217.6H93.867V102.4h64
	c2.56,0,4.267,1.707,4.267,4.267s-1.707,4.267-4.267,4.267h-64V153.6h64c2.56,0,4.267,1.707,4.267,4.267
	c0,2.56-1.707,4.267-4.267,4.267h-64V204.8h64c2.56,0,4.267,1.707,4.267,4.267c0,2.56-1.707,4.267-4.267,4.267h-64V256h64
	c2.56,0,4.267,1.707,4.267,4.267c0,2.56-1.707,4.267-4.267,4.267h-64v12.8c0,2.56-1.707,4.267-4.267,4.267
	c-2.56,0-4.267-1.707-4.267-4.267v-217.6H56.32C51.2,62.293,8.533,83.627,8.533,183.467S51.2,304.64,56.32,307.2z M456.533,128
	c-1.707,0-3.413-1.707-4.267-3.413c-3.413-16.213-11.947-27.307-14.507-30.72h-23.893c-2.56,0-4.267-1.707-4.267-4.267
	c0-2.56,1.707-4.267,4.267-4.267h25.6c0.853,0,2.56,0.853,3.413,0.853c0.853,0.853,13.653,14.507,17.92,36.693
	c0.853,2.56-0.853,4.267-3.413,5.12H456.533z M379.733,93.867h-17.067c-2.56,0-4.267-1.707-4.267-4.267
	c0-2.56,1.707-4.267,4.267-4.267h17.067c2.56,0,4.267,1.707,4.267,4.267C384,92.16,382.293,93.867,379.733,93.867z"/>
<g>
</g>
<g>
</g>
<g>
</g>
<g>
</g>
<g>
</g>
<g>
</g>
<g>
</g>
<g>
</g>
<g>
</g>
<g>
</g>
<g>
</g>
<g>
</g>
<g>
</g>
<g>
</g>
<g>
</g>
</svg>
