<?xml version="1.0" encoding="iso-8859-1"?>
<!-- Generator: Adobe Illustrator 19.0.0, SVG Export Plug-In . SVG Version: 6.00 Build 0)  -->
<svg version="1.1" id="Layer_1" xmlns="http://www.w3.org/2000/svg" xmlns:xlink="http://www.w3.org/1999/xlink" x="0px" y="0px"
	 viewBox="0 0 503.467 503.467" style="enable-background:new 0 0 503.467 503.467;" xml:space="preserve">
<g transform="translate(1 1)">
	<path style="fill:#F2EDDA;" d="M481.133,173.933v290.133c0,18.773-15.36,34.133-34.133,34.133H54.467
		c-18.773,0-34.133-15.36-34.133-34.133V173.933H481.133z"/>
	<path style="fill:#FFD0A1;" d="M498.2,122.733v34.133c0,9.387-7.68,17.067-17.067,17.067h-460.8
		c-9.387,0-17.067-7.68-17.067-17.067v-34.133c0-9.387,7.68-17.067,17.067-17.067h51.2H139.8l17.067,17.067H344.6l17.067-17.067
		h68.267h51.2C490.52,105.667,498.2,113.347,498.2,122.733"/>
	<g>
		<polygon style="fill:#AAB1BA;" points="310.467,327.533 225.133,429.933 242.2,361.667 191,361.667 276.333,242.2 
			259.267,327.533 		"/>
		<path style="fill:#AAB1BA;" d="M429.933,37.4v34.133v34.133h-68.267V20.333c0-9.387,7.68-17.067,17.067-17.067h34.133
			c9.387,0,17.067,7.68,17.067,17.067V37.4z M139.8,71.533v34.133H71.533V20.333c0-9.387,7.68-17.067,17.067-17.067h34.133
			c9.387,0,17.067,7.68,17.067,17.067V37.4V71.533z"/>
	</g>
</g>
<path style="fill:#51565F;" d="M448,503.467H55.467c-21.333,0-38.4-17.067-38.4-38.4v-286.72C7.68,176.64,0,168.107,0,157.867
	v-34.133C0,111.787,9.387,102.4,21.333,102.4h115.2V76.8h-12.8c-2.56,0-4.267-1.707-4.267-4.267c0-2.56,1.707-4.267,4.267-4.267
	h12.8v-25.6h-12.8c-2.56,0-4.267-1.707-4.267-4.267s1.707-4.267,4.267-4.267h12.8v-12.8c0-6.827-5.973-12.8-12.8-12.8H89.6
	c-6.827,0-12.8,5.973-12.8,12.8v51.2c0,2.56-1.707,4.267-4.267,4.267c-2.56,0-4.267-1.707-4.267-4.267v-51.2
	C68.267,9.387,77.653,0,89.6,0h34.133c11.947,0,21.333,9.387,21.333,21.333v83.627l14.507,14.507h184.32L358.4,104.96V21.333
	C358.4,9.387,367.787,0,379.733,0h34.133C425.813,0,435.2,9.387,435.2,21.333v51.2c0,2.56-1.707,4.267-4.267,4.267h-17.067
	c-2.56,0-4.267-1.707-4.267-4.267c0-2.56,1.707-4.267,4.267-4.267h12.8v-25.6h-12.8c-2.56,0-4.267-1.707-4.267-4.267
	s1.707-4.267,4.267-4.267h12.8v-12.8c0-6.827-5.973-12.8-12.8-12.8h-34.133c-6.827,0-12.8,5.973-12.8,12.8V102.4h115.2
	c11.947,0,21.333,9.387,21.333,21.333v34.133c0,11.947-9.387,21.333-21.333,21.333H25.6v285.867
	c0,16.213,13.653,29.867,29.867,29.867H448c16.213,0,29.867-13.653,29.867-29.867v-256c0-2.56,1.707-4.267,4.267-4.267
	s4.267,1.707,4.267,4.267v256C486.4,486.4,469.333,503.467,448,503.467z M21.333,170.667h460.8c6.827,0,12.8-5.973,12.8-12.8
	v-34.133c0-6.827-5.973-12.8-12.8-12.8h-117.76l-16.213,16.213C347.307,128,346.453,128,344.747,128H157.014
	c-0.853,0-2.56-0.853-3.413-0.853l-16.213-16.213H21.333c-6.827,0-12.8,5.973-12.8,12.8v34.133
	C8.533,164.693,14.507,170.667,21.333,170.667z M226.133,435.2c-0.853,0-1.707,0-1.707-0.853c-1.707-0.853-2.56-2.56-2.56-5.12
	l15.36-63.147h-46.08c-1.707,0-3.413-0.853-3.413-2.56c-0.853-1.707-0.853-3.413,0-4.267l85.333-119.467
	c0.853-1.707,3.413-2.56,5.12-1.707c1.707,0.853,2.56,2.56,2.56,5.12l-16.213,80.213h46.08c1.707,0,3.413,0.853,4.267,2.56
	c0.853,1.707,0.853,3.413-0.853,4.267l-85.333,102.4C228.693,434.347,226.987,435.2,226.133,435.2z M200.533,358.4H243.2
	c1.707,0,2.56,0.853,3.413,1.707c0.853,0.853,0.853,2.56,0.853,3.413l-12.8,50.347L302.08,332.8h-41.813
	c-0.853,0-2.56-0.853-3.413-1.707C256,330.24,256,328.533,256,327.68l12.8-65.707L200.533,358.4z M106.667,384
	c-2.56,0-4.267-1.707-4.267-4.267v-29.867H72.533c-2.56,0-4.267-1.707-4.267-4.267c0-2.56,1.707-4.267,4.267-4.267H102.4v-29.867
	c0-2.56,1.707-4.267,4.267-4.267s4.267,1.707,4.267,4.267v29.867H140.8c2.56,0,4.267,1.707,4.267,4.267
	c0,2.56-1.707,4.267-4.267,4.267h-29.867v29.867C110.933,382.293,109.227,384,106.667,384z M430.933,349.867h-68.267
	c-2.56,0-4.267-1.707-4.267-4.267c0-2.56,1.707-4.267,4.267-4.267h68.267c2.56,0,4.267,1.707,4.267,4.267
	C435.2,348.16,433.493,349.867,430.933,349.867z"/>
<g>
</g>
<g>
</g>
<g>
</g>
<g>
</g>
<g>
</g>
<g>
</g>
<g>
</g>
<g>
</g>
<g>
</g>
<g>
</g>
<g>
</g>
<g>
</g>
<g>
</g>
<g>
</g>
<g>
</g>
</svg>
