<?xml version="1.0" encoding="iso-8859-1"?>
<!-- Generator: Adobe Illustrator 19.0.0, SVG Export Plug-In . SVG Version: 6.00 Build 0)  -->
<svg version="1.1" id="Layer_1" xmlns="http://www.w3.org/2000/svg" xmlns:xlink="http://www.w3.org/1999/xlink" x="0px" y="0px"
	 viewBox="0 0 503.467 503.467" style="enable-background:new 0 0 503.467 503.467;" xml:space="preserve">
<g transform="translate(1 3)">
	<path style="fill:#F2EDDA;" d="M498.2,180.467v119.467c0,52.053-41.813,93.867-93.867,93.867h-25.6V86.6h25.6
		C456.387,86.6,498.2,128.413,498.2,180.467z M122.733,86.6v307.2h-25.6c-52.053,0-93.867-41.813-93.867-93.867V180.467
		c0-52.053,41.813-93.867,93.867-93.867H122.733z"/>
	<polygon style="fill:#AAB1BA;" points="378.733,86.6 378.733,393.8 344.6,393.8 156.867,393.8 122.733,393.8 122.733,86.6 
		173.933,86.6 310.467,86.6 	"/>
	<path style="fill:#FFD0A1;" d="M310.467,52.467V86.6H173.933V52.467c0-18.773,15.36-34.133,34.133-34.133h68.267
		C295.107,18.333,310.467,33.693,310.467,52.467z M344.6,393.8V445c0,18.773-15.36,34.133-34.133,34.133H191
		c-18.773,0-34.133-15.36-34.133-34.133v-51.2H344.6z"/>
</g>
<path style="fill:#51565F;" d="M311.467,486.4H192c-21.333,0-38.4-17.067-38.4-38.4v-17.067c0-2.56,1.707-4.267,4.267-4.267
	c2.56,0,4.267,1.707,4.267,4.267V448c0,16.213,13.653,29.867,29.867,29.867h119.467c16.213,0,29.867-13.653,29.867-29.867v-17.067
	c0-2.56,1.707-4.267,4.267-4.267s4.267,1.707,4.267,4.267V448C349.867,469.333,332.8,486.4,311.467,486.4z M315.733,460.8
	c-5.12,0-8.533-3.413-8.533-8.533s3.413-8.533,8.533-8.533c5.12,0,8.533,3.413,8.533,8.533S320.853,460.8,315.733,460.8z
	 M187.733,460.8c-5.12,0-8.533-3.413-8.533-8.533s3.413-8.533,8.533-8.533c5.12,0,8.533,3.413,8.533,8.533
	S192.853,460.8,187.733,460.8z M405.333,401.067H157.867c-2.56,0-4.267-1.707-4.267-4.267s1.707-4.267,4.267-4.267h247.467
	c49.493,0,89.6-40.107,89.6-89.6V183.467c0-49.493-40.107-89.6-89.6-89.6H384v268.8c0,2.56-1.707,4.267-4.267,4.267
	c-2.56,0-4.267-1.707-4.267-4.267V89.6c0-2.56,1.707-4.267,4.267-4.267h25.6c53.76,0,98.133,44.373,98.133,98.133v119.467
	C503.467,356.693,459.093,401.067,405.333,401.067z M123.733,401.067h-25.6C44.373,401.067,0,356.693,0,302.933V183.467
	c0-53.76,44.373-98.133,98.133-98.133H345.6c2.56,0,4.267,1.707,4.267,4.267c0,2.56-1.707,4.267-4.267,4.267H98.133
	c-49.493,0-89.6,40.107-89.6,89.6v119.467c0,49.493,40.107,89.6,89.6,89.6h21.333v-268.8c0-2.56,1.707-4.267,4.267-4.267
	c2.56,0,4.267,1.707,4.267,4.267V396.8C128,399.36,126.293,401.067,123.733,401.067z M345.6,366.933H157.867
	c-2.56,0-4.267-1.707-4.267-4.267s1.707-4.267,4.267-4.267H345.6c2.56,0,4.267,1.707,4.267,4.267S348.16,366.933,345.6,366.933z
	 M345.6,332.8H157.867c-2.56,0-4.267-1.707-4.267-4.267c0-2.56,1.707-4.267,4.267-4.267H345.6c2.56,0,4.267,1.707,4.267,4.267
	C349.867,331.093,348.16,332.8,345.6,332.8z M345.6,298.667H157.867c-2.56,0-4.267-1.707-4.267-4.267
	c0-2.56,1.707-4.267,4.267-4.267H345.6c2.56,0,4.267,1.707,4.267,4.267C349.867,296.96,348.16,298.667,345.6,298.667z
	 M345.6,264.533H157.867c-2.56,0-4.267-1.707-4.267-4.267c0-2.56,1.707-4.267,4.267-4.267H345.6c2.56,0,4.267,1.707,4.267,4.267
	C349.867,262.827,348.16,264.533,345.6,264.533z M345.6,230.4H157.867c-2.56,0-4.267-1.707-4.267-4.267s1.707-4.267,4.267-4.267
	H345.6c2.56,0,4.267,1.707,4.267,4.267S348.16,230.4,345.6,230.4z M345.6,196.267H157.867c-2.56,0-4.267-1.707-4.267-4.267
	c0-2.56,1.707-4.267,4.267-4.267H345.6c2.56,0,4.267,1.707,4.267,4.267C349.867,194.56,348.16,196.267,345.6,196.267z
	 M345.6,162.133H157.867c-2.56,0-4.267-1.707-4.267-4.267c0-2.56,1.707-4.267,4.267-4.267H345.6c2.56,0,4.267,1.707,4.267,4.267
	C349.867,160.427,348.16,162.133,345.6,162.133z M345.6,128H157.867c-2.56,0-4.267-1.707-4.267-4.267
	c0-2.56,1.707-4.267,4.267-4.267H345.6c2.56,0,4.267,1.707,4.267,4.267C349.867,126.293,348.16,128,345.6,128z M311.467,59.733
	c-2.56,0-4.267-1.707-4.267-4.267c0-16.213-13.653-29.867-29.867-29.867h-68.267c-16.213,0-29.867,13.653-29.867,29.867
	c0,2.56-1.707,4.267-4.267,4.267c-2.56,0-4.267-1.707-4.267-4.267c0-21.333,17.067-38.4,38.4-38.4h68.267
	c21.333,0,38.4,17.067,38.4,38.4C315.733,58.027,314.027,59.733,311.467,59.733z"/>
<g>
</g>
<g>
</g>
<g>
</g>
<g>
</g>
<g>
</g>
<g>
</g>
<g>
</g>
<g>
</g>
<g>
</g>
<g>
</g>
<g>
</g>
<g>
</g>
<g>
</g>
<g>
</g>
<g>
</g>
</svg>
