<?xml version="1.0" encoding="iso-8859-1"?>
<!-- Generator: Adobe Illustrator 19.0.0, SVG Export Plug-In . SVG Version: 6.00 Build 0)  -->
<svg version="1.1" id="Layer_1" xmlns="http://www.w3.org/2000/svg" xmlns:xlink="http://www.w3.org/1999/xlink" x="0px" y="0px"
	 viewBox="0 0 503.467 503.467" style="enable-background:new 0 0 503.467 503.467;" xml:space="preserve">
<g transform="translate(1 1)">
	<path style="fill:#F2EDDA;" d="M345.454,215.747v34.133c0,4.267-3.413,8.533-8.533,8.533h-8.533v68.267
		c0,18.773-15.36,34.133-34.133,34.133h-34.133h-34.133h-34.133c-18.773,0-34.133-15.36-34.133-34.133v-68.267h-8.533
		c-4.267,0-8.533-4.267-8.533-8.533v-34.133c0-4.267,4.267-8.533,8.533-8.533h42.667h51.2h51.2h42.667
		C342.041,207.213,345.454,211.48,345.454,215.747"/>
	<path style="fill:#FFD0A1;" d="M243.054,275.48c9.387,0,17.067,7.68,17.067,17.067s-7.68,17.067-17.067,17.067
		s-17.067-7.68-17.067-17.067S233.667,275.48,243.054,275.48"/>
	<path style="fill:#AAB1BA;" d="M499.054,249.88v136.533c0,60.587-50.347,110.933-110.933,110.933h-51.2
		c-60.587,0-110.08-50.347-110.933-110.933v-25.6h34.133v25.6c0,42.667,34.133,76.8,76.8,76.8h51.2c42.667,0,76.8-34.133,76.8-76.8
		V249.88c0-117.76-95.573-213.333-213.333-213.333c-117.76,0-213.333,95.573-213.333,213.333c0,58.88,23.893,111.787,62.293,151.04
		c0,0,13.653,11.947,1.707,23.893c-11.947,11.947-25.6,0-25.6,0C32.28,379.587,4.121,318.147,4.121,249.88
		c0-136.533,110.933-247.467,247.467-247.467S499.054,113.347,499.054,249.88"/>
</g>
<path style="fill:#51565F;" d="M337.921,502.613c-63.147,0-114.347-52.053-115.2-115.2c0-2.56,1.707-4.267,4.267-4.267l0,0
	c2.56,0,4.267,1.707,4.267,4.267c0,58.88,48.64,106.667,106.667,106.667h51.2c58.88,0,106.667-48.64,106.667-106.667V250.88
	c0-133.973-109.227-243.2-243.2-243.2s-243.2,109.227-243.2,243.2c0,64.853,25.6,126.293,70.827,172.373
	c0.853,0.853,11.093,8.533,19.627,0c2.56-2.56,3.413-5.12,3.413-7.68c0-5.12-5.12-10.24-5.12-10.24c-40.96-40.96-64-95.573-64-153.6
	c0-120.32,97.28-217.6,217.6-217.6s217.6,97.28,217.6,217.6v136.533c0,44.373-36.693,81.067-81.067,81.067h-51.2
	c-44.373,0-81.067-36.693-81.067-81.067c0-2.56,1.707-4.267,4.267-4.267s4.267,1.707,4.267,4.267
	c0,40.107,32.427,72.533,72.533,72.533h51.2c40.107,0,72.533-32.427,72.533-72.533V251.733c0-115.2-93.867-209.067-209.067-209.067
	S42.667,136.533,42.667,251.733c0,55.467,21.333,108.373,61.44,147.627c0,0,7.68,6.827,7.68,16.213c0,5.12-1.707,10.24-5.973,14.507
	c-11.947,11.947-25.6,5.12-31.573,0C26.453,382.293,0,319.147,0,251.733C0,112.64,112.64,0,251.733,0
	s251.733,112.64,251.733,251.733v136.533c0,63.147-52.053,115.2-115.2,115.2h-50.346V502.613z M295.254,366.08h-102.4
	c-21.333,0-38.4-17.067-38.4-38.4v-64h-4.267c-6.827,0-12.8-5.973-12.8-12.8v-34.133c0-6.827,5.973-12.8,12.8-12.8h38.4v-64
	c0-2.56,1.707-4.267,4.267-4.267s4.267,1.707,4.267,4.267v64h42.667v-64c0-2.56,1.707-4.267,4.267-4.267s4.267,1.707,4.267,4.267v64
	h42.667v-64c0-2.56,1.707-4.267,4.267-4.267c2.56,0,4.267,1.707,4.267,4.267v64h38.4c6.827,0,12.8,5.973,12.8,12.8v34.133
	c0,6.827-5.973,12.8-12.8,12.8h-4.267v64C333.654,349.013,316.587,366.08,295.254,366.08z M150.187,212.48
	c-2.56,0-4.267,1.707-4.267,4.267v34.133c0,2.56,1.707,4.267,4.267,4.267h8.533c2.56,0,4.267,1.707,4.267,4.267v68.267
	c0,16.213,13.653,29.867,29.867,29.867h102.4c16.213,0,29.867-13.653,29.867-29.867v-68.267c0-2.56,1.707-4.267,4.267-4.267h8.533
	c2.56,0,4.267-1.707,4.267-4.267v-34.133c0-2.56-1.707-4.267-4.267-4.267H150.187z M244.054,314.88
	c-11.947,0-21.333-9.387-21.333-21.333s9.387-21.333,21.333-21.333s21.333,9.387,21.333,21.333S256.001,314.88,244.054,314.88z
	 M244.054,280.747c-6.827,0-12.8,5.973-12.8,12.8s5.973,12.8,12.8,12.8c6.827,0,12.8-5.973,12.8-12.8
	S250.881,280.747,244.054,280.747z"/>
<g>
</g>
<g>
</g>
<g>
</g>
<g>
</g>
<g>
</g>
<g>
</g>
<g>
</g>
<g>
</g>
<g>
</g>
<g>
</g>
<g>
</g>
<g>
</g>
<g>
</g>
<g>
</g>
<g>
</g>
</svg>
